<mxfile host="Electron" agent="Mozilla/5.0 (Windows NT 10.0; Win64; x64) AppleWebKit/537.36 (KHTML, like Gecko) draw.io/25.0.2 Chrome/128.0.6613.186 Electron/32.2.5 Safari/537.36" version="25.0.2">
  <diagram name="Trang-1" id="OrV0UYE6npWRx3nDmX_L">
    <mxGraphModel dx="1104" dy="732" grid="1" gridSize="10" guides="1" tooltips="1" connect="1" arrows="1" fold="1" page="1" pageScale="1" pageWidth="827" pageHeight="1169" math="0" shadow="0">
      <root>
        <mxCell id="0" />
        <mxCell id="1" parent="0" />
        <mxCell id="As7OFJI1o5R5hSgRAXrv-3" value="" style="edgeStyle=orthogonalEdgeStyle;rounded=0;orthogonalLoop=1;jettySize=auto;html=1;" edge="1" parent="1" source="As7OFJI1o5R5hSgRAXrv-1" target="As7OFJI1o5R5hSgRAXrv-2">
          <mxGeometry relative="1" as="geometry" />
        </mxCell>
        <mxCell id="As7OFJI1o5R5hSgRAXrv-1" value="start" style="ellipse;whiteSpace=wrap;html=1;fillColor=none;" vertex="1" parent="1">
          <mxGeometry x="340" y="210" width="120" height="80" as="geometry" />
        </mxCell>
        <mxCell id="As7OFJI1o5R5hSgRAXrv-5" value="" style="edgeStyle=orthogonalEdgeStyle;rounded=0;orthogonalLoop=1;jettySize=auto;html=1;" edge="1" parent="1" source="As7OFJI1o5R5hSgRAXrv-2" target="As7OFJI1o5R5hSgRAXrv-4">
          <mxGeometry relative="1" as="geometry" />
        </mxCell>
        <mxCell id="As7OFJI1o5R5hSgRAXrv-2" value="a,b,total" style="shape=parallelogram;perimeter=parallelogramPerimeter;whiteSpace=wrap;html=1;fixedSize=1;fillColor=none;" vertex="1" parent="1">
          <mxGeometry x="340" y="380" width="120" height="60" as="geometry" />
        </mxCell>
        <mxCell id="As7OFJI1o5R5hSgRAXrv-9" value="" style="edgeStyle=orthogonalEdgeStyle;rounded=0;orthogonalLoop=1;jettySize=auto;html=1;" edge="1" parent="1" source="As7OFJI1o5R5hSgRAXrv-4" target="As7OFJI1o5R5hSgRAXrv-8">
          <mxGeometry relative="1" as="geometry" />
        </mxCell>
        <mxCell id="As7OFJI1o5R5hSgRAXrv-4" value="total=a+b" style="whiteSpace=wrap;html=1;fillColor=none;" vertex="1" parent="1">
          <mxGeometry x="340" y="520" width="120" height="60" as="geometry" />
        </mxCell>
        <mxCell id="As7OFJI1o5R5hSgRAXrv-11" value="" style="edgeStyle=orthogonalEdgeStyle;rounded=0;orthogonalLoop=1;jettySize=auto;html=1;" edge="1" parent="1" source="As7OFJI1o5R5hSgRAXrv-8" target="As7OFJI1o5R5hSgRAXrv-10">
          <mxGeometry relative="1" as="geometry" />
        </mxCell>
        <mxCell id="As7OFJI1o5R5hSgRAXrv-8" value="total" style="shape=parallelogram;perimeter=parallelogramPerimeter;whiteSpace=wrap;html=1;fixedSize=1;fillColor=none;" vertex="1" parent="1">
          <mxGeometry x="340" y="660" width="120" height="60" as="geometry" />
        </mxCell>
        <mxCell id="As7OFJI1o5R5hSgRAXrv-10" value="end" style="ellipse;whiteSpace=wrap;html=1;fillColor=none;" vertex="1" parent="1">
          <mxGeometry x="340" y="790" width="120" height="80" as="geometry" />
        </mxCell>
      </root>
    </mxGraphModel>
  </diagram>
</mxfile>
